<mxfile host="www.draw.io" modified="2020-03-11T07:31:54.430Z" agent="Mozilla/5.0 (Macintosh; Intel Mac OS X 10_14_6) AppleWebKit/537.36 (KHTML, like Gecko) Chrome/80.0.3987.132 Safari/537.36" etag="NtlDwvWVIJqPHy_QIecf" version="12.8.2" type="github">
  <diagram id="0LorpYN9siC3LZAP5Hen" name="第 1 页">
    <mxGraphModel dx="946" dy="614" grid="1" gridSize="10" guides="1" tooltips="1" connect="1" arrows="1" fold="1" page="1" pageScale="1" pageWidth="1169" pageHeight="827" math="0" shadow="0">
      <root>
        <mxCell id="0" />
        <mxCell id="1" parent="0" />
        <mxCell id="NPSApUFOZu9N5_JHAl4--2" value="" style="rounded=0;whiteSpace=wrap;html=1;" vertex="1" parent="1">
          <mxGeometry x="460" y="150" width="120" height="490" as="geometry" />
        </mxCell>
        <mxCell id="NPSApUFOZu9N5_JHAl4--4" value="" style="endArrow=classic;html=1;entryX=-0.033;entryY=0.408;entryDx=0;entryDy=0;entryPerimeter=0;" edge="1" parent="1" target="NPSApUFOZu9N5_JHAl4--3">
          <mxGeometry width="50" height="50" relative="1" as="geometry">
            <mxPoint x="580.96" y="351" as="sourcePoint" />
            <mxPoint x="759.96" y="351" as="targetPoint" />
          </mxGeometry>
        </mxCell>
        <mxCell id="NPSApUFOZu9N5_JHAl4--28" value="CreateOrder" style="text;html=1;align=center;verticalAlign=middle;resizable=0;points=[];labelBackgroundColor=#ffffff;" vertex="1" connectable="0" parent="NPSApUFOZu9N5_JHAl4--4">
          <mxGeometry x="-0.151" y="1" relative="1" as="geometry">
            <mxPoint x="14.01" as="offset" />
          </mxGeometry>
        </mxCell>
        <mxCell id="NPSApUFOZu9N5_JHAl4--5" value="" style="endArrow=classic;html=1;exitX=1.025;exitY=0.05;exitDx=0;exitDy=0;exitPerimeter=0;entryX=-0.033;entryY=0.048;entryDx=0;entryDy=0;entryPerimeter=0;" edge="1" parent="1" source="NPSApUFOZu9N5_JHAl4--1" target="NPSApUFOZu9N5_JHAl4--2">
          <mxGeometry width="50" height="50" relative="1" as="geometry">
            <mxPoint x="350" y="220" as="sourcePoint" />
            <mxPoint x="450" y="179" as="targetPoint" />
          </mxGeometry>
        </mxCell>
        <mxCell id="NPSApUFOZu9N5_JHAl4--27" value="CreateFileSystem" style="text;html=1;align=center;verticalAlign=middle;resizable=0;points=[];labelBackgroundColor=#ffffff;" vertex="1" connectable="0" parent="NPSApUFOZu9N5_JHAl4--5">
          <mxGeometry x="-0.2214" y="-1" relative="1" as="geometry">
            <mxPoint x="14.04" y="-1.61" as="offset" />
          </mxGeometry>
        </mxCell>
        <mxCell id="NPSApUFOZu9N5_JHAl4--7" value="" style="endArrow=classic;html=1;dashed=1;" edge="1" parent="1">
          <mxGeometry width="50" height="50" relative="1" as="geometry">
            <mxPoint x="580.96" y="370" as="sourcePoint" />
            <mxPoint x="746" y="370" as="targetPoint" />
          </mxGeometry>
        </mxCell>
        <mxCell id="NPSApUFOZu9N5_JHAl4--9" value="重试（3次）" style="text;html=1;align=center;verticalAlign=middle;resizable=0;points=[];labelBackgroundColor=#ffffff;" vertex="1" connectable="0" parent="NPSApUFOZu9N5_JHAl4--7">
          <mxGeometry x="-0.1063" relative="1" as="geometry">
            <mxPoint x="10" as="offset" />
          </mxGeometry>
        </mxCell>
        <mxCell id="NPSApUFOZu9N5_JHAl4--18" value="" style="endArrow=classic;html=1;" edge="1" parent="1">
          <mxGeometry width="50" height="50" relative="1" as="geometry">
            <mxPoint x="756" y="460" as="sourcePoint" />
            <mxPoint x="580" y="460" as="targetPoint" />
          </mxGeometry>
        </mxCell>
        <mxCell id="NPSApUFOZu9N5_JHAl4--19" value="生产回调" style="text;html=1;align=center;verticalAlign=middle;resizable=0;points=[];labelBackgroundColor=#ffffff;" vertex="1" connectable="0" parent="NPSApUFOZu9N5_JHAl4--18">
          <mxGeometry x="-0.477" y="-2" relative="1" as="geometry">
            <mxPoint x="-52.06" as="offset" />
          </mxGeometry>
        </mxCell>
        <mxCell id="NPSApUFOZu9N5_JHAl4--24" value="&lt;span style=&quot;text-align: left&quot;&gt;首次请求，DB Create&lt;br&gt;status=pending&lt;br&gt;&lt;/span&gt;" style="rounded=1;whiteSpace=wrap;html=1;fillColor=#d5e8d4;strokeColor=#82b366;" vertex="1" parent="1">
          <mxGeometry x="400" y="290" width="120" height="30" as="geometry" />
        </mxCell>
        <mxCell id="NPSApUFOZu9N5_JHAl4--26" value="&lt;span style=&quot;text-align: left&quot;&gt;若fsid存在，更新DB status=finished&lt;/span&gt;" style="rounded=1;whiteSpace=wrap;html=1;fillColor=#d5e8d4;strokeColor=#82b366;" vertex="1" parent="1">
          <mxGeometry x="525" y="480" width="110" height="30" as="geometry" />
        </mxCell>
        <mxCell id="NPSApUFOZu9N5_JHAl4--56" style="edgeStyle=orthogonalEdgeStyle;rounded=0;orthogonalLoop=1;jettySize=auto;html=1;exitX=1;exitY=0.5;exitDx=0;exitDy=0;" edge="1" parent="1" source="NPSApUFOZu9N5_JHAl4--35" target="NPSApUFOZu9N5_JHAl4--41">
          <mxGeometry relative="1" as="geometry">
            <Array as="points">
              <mxPoint x="580" y="205" />
            </Array>
          </mxGeometry>
        </mxCell>
        <mxCell id="NPSApUFOZu9N5_JHAl4--57" value="存在" style="text;html=1;align=center;verticalAlign=middle;resizable=0;points=[];labelBackgroundColor=#ffffff;" vertex="1" connectable="0" parent="NPSApUFOZu9N5_JHAl4--56">
          <mxGeometry x="-0.28" y="-2" relative="1" as="geometry">
            <mxPoint x="3" y="-2" as="offset" />
          </mxGeometry>
        </mxCell>
        <mxCell id="NPSApUFOZu9N5_JHAl4--58" value="不存在" style="edgeStyle=orthogonalEdgeStyle;rounded=0;orthogonalLoop=1;jettySize=auto;html=1;exitX=0.5;exitY=1;exitDx=0;exitDy=0;entryX=0.5;entryY=0;entryDx=0;entryDy=0;" edge="1" parent="1" source="NPSApUFOZu9N5_JHAl4--35" target="NPSApUFOZu9N5_JHAl4--24">
          <mxGeometry relative="1" as="geometry" />
        </mxCell>
        <mxCell id="NPSApUFOZu9N5_JHAl4--35" value="&lt;span style=&quot;text-align: left ; white-space: normal&quot;&gt;加载ClientToken&lt;/span&gt;" style="rhombus;whiteSpace=wrap;html=1;fillColor=#ffe6cc;strokeColor=#d79b00;" vertex="1" parent="1">
          <mxGeometry x="400" y="190" width="120" height="30" as="geometry" />
        </mxCell>
        <mxCell id="NPSApUFOZu9N5_JHAl4--69" style="edgeStyle=orthogonalEdgeStyle;rounded=0;orthogonalLoop=1;jettySize=auto;html=1;exitX=0.5;exitY=1;exitDx=0;exitDy=0;entryX=0.5;entryY=0;entryDx=0;entryDy=0;" edge="1" parent="1" source="NPSApUFOZu9N5_JHAl4--41" target="NPSApUFOZu9N5_JHAl4--59">
          <mxGeometry relative="1" as="geometry" />
        </mxCell>
        <mxCell id="NPSApUFOZu9N5_JHAl4--70" value="否" style="text;html=1;align=center;verticalAlign=middle;resizable=0;points=[];labelBackgroundColor=#ffffff;" vertex="1" connectable="0" parent="NPSApUFOZu9N5_JHAl4--69">
          <mxGeometry x="-0.1" relative="1" as="geometry">
            <mxPoint as="offset" />
          </mxGeometry>
        </mxCell>
        <mxCell id="NPSApUFOZu9N5_JHAl4--41" value="&lt;span style=&quot;text-align: left ; white-space: normal&quot;&gt;Status==ordered?&lt;/span&gt;" style="rhombus;whiteSpace=wrap;html=1;fillColor=#ffe6cc;strokeColor=#d79b00;" vertex="1" parent="1">
          <mxGeometry x="520" y="220" width="120" height="30" as="geometry" />
        </mxCell>
        <mxCell id="NPSApUFOZu9N5_JHAl4--43" value="" style="endArrow=classic;html=1;exitX=0;exitY=0.5;exitDx=0;exitDy=0;" edge="1" parent="1" source="NPSApUFOZu9N5_JHAl4--41">
          <mxGeometry width="50" height="50" relative="1" as="geometry">
            <mxPoint x="450" y="234.5" as="sourcePoint" />
            <mxPoint x="300" y="234.5" as="targetPoint" />
          </mxGeometry>
        </mxCell>
        <mxCell id="NPSApUFOZu9N5_JHAl4--44" value="返回FsId及状态" style="text;html=1;align=center;verticalAlign=middle;resizable=0;points=[];labelBackgroundColor=#ffffff;" vertex="1" connectable="0" parent="NPSApUFOZu9N5_JHAl4--43">
          <mxGeometry x="-0.2214" y="-1" relative="1" as="geometry">
            <mxPoint x="-69" y="-0.7999999999999998" as="offset" />
          </mxGeometry>
        </mxCell>
        <mxCell id="NPSApUFOZu9N5_JHAl4--68" value="是" style="text;html=1;align=center;verticalAlign=middle;resizable=0;points=[];labelBackgroundColor=#ffffff;" vertex="1" connectable="0" parent="NPSApUFOZu9N5_JHAl4--43">
          <mxGeometry x="-0.6727" y="-2" relative="1" as="geometry">
            <mxPoint x="16" as="offset" />
          </mxGeometry>
        </mxCell>
        <mxCell id="NPSApUFOZu9N5_JHAl4--48" value="以30天为周期进行自动回收" style="ellipse;whiteSpace=wrap;html=1;aspect=fixed;fillColor=#d5e8d4;strokeColor=#82b366;" vertex="1" parent="1">
          <mxGeometry x="420" y="550" width="80" height="80" as="geometry" />
        </mxCell>
        <mxCell id="NPSApUFOZu9N5_JHAl4--72" style="edgeStyle=orthogonalEdgeStyle;rounded=0;orthogonalLoop=1;jettySize=auto;html=1;exitX=0.5;exitY=1;exitDx=0;exitDy=0;" edge="1" parent="1" source="NPSApUFOZu9N5_JHAl4--52">
          <mxGeometry relative="1" as="geometry">
            <mxPoint x="300" y="460" as="targetPoint" />
            <Array as="points">
              <mxPoint x="520" y="460" />
              <mxPoint x="300" y="460" />
            </Array>
          </mxGeometry>
        </mxCell>
        <mxCell id="NPSApUFOZu9N5_JHAl4--73" value="异常返回，并告知用户重试" style="text;html=1;align=center;verticalAlign=middle;resizable=0;points=[];labelBackgroundColor=#ffffff;" vertex="1" connectable="0" parent="NPSApUFOZu9N5_JHAl4--72">
          <mxGeometry x="0.5917" y="-2" relative="1" as="geometry">
            <mxPoint x="51" as="offset" />
          </mxGeometry>
        </mxCell>
        <mxCell id="NPSApUFOZu9N5_JHAl4--52" value="&lt;span style=&quot;text-align: left ; white-space: normal&quot;&gt;下单是否成功&lt;/span&gt;" style="rhombus;whiteSpace=wrap;html=1;fillColor=#ffe6cc;strokeColor=#d79b00;" vertex="1" parent="1">
          <mxGeometry x="460" y="398" width="120" height="30" as="geometry" />
        </mxCell>
        <mxCell id="NPSApUFOZu9N5_JHAl4--53" value="" style="endArrow=classic;html=1;exitX=0;exitY=0.5;exitDx=0;exitDy=0;" edge="1" parent="1" source="NPSApUFOZu9N5_JHAl4--52">
          <mxGeometry width="50" height="50" relative="1" as="geometry">
            <mxPoint x="40" y="418" as="sourcePoint" />
            <mxPoint x="300" y="413" as="targetPoint" />
          </mxGeometry>
        </mxCell>
        <mxCell id="NPSApUFOZu9N5_JHAl4--54" value="返回FsId及状态" style="text;html=1;align=center;verticalAlign=middle;resizable=0;points=[];labelBackgroundColor=#ffffff;" vertex="1" connectable="0" parent="NPSApUFOZu9N5_JHAl4--53">
          <mxGeometry x="0.4091" y="-1" relative="1" as="geometry">
            <mxPoint x="20" y="-1" as="offset" />
          </mxGeometry>
        </mxCell>
        <mxCell id="NPSApUFOZu9N5_JHAl4--59" value="&lt;span style=&quot;text-align: left&quot;&gt;校验请求幂等性&lt;br&gt;&lt;/span&gt;" style="rounded=1;whiteSpace=wrap;html=1;" vertex="1" parent="1">
          <mxGeometry x="530" y="290" width="100" height="30" as="geometry" />
        </mxCell>
        <mxCell id="NPSApUFOZu9N5_JHAl4--71" style="edgeStyle=orthogonalEdgeStyle;rounded=0;orthogonalLoop=1;jettySize=auto;html=1;exitX=0.5;exitY=1;exitDx=0;exitDy=0;" edge="1" parent="1" source="NPSApUFOZu9N5_JHAl4--60" target="NPSApUFOZu9N5_JHAl4--52">
          <mxGeometry relative="1" as="geometry" />
        </mxCell>
        <mxCell id="NPSApUFOZu9N5_JHAl4--60" value="&lt;span style=&quot;text-align: left&quot;&gt;下单&lt;br&gt;&lt;/span&gt;" style="rounded=1;whiteSpace=wrap;html=1;" vertex="1" parent="1">
          <mxGeometry x="450" y="348" width="140" height="30" as="geometry" />
        </mxCell>
        <mxCell id="NPSApUFOZu9N5_JHAl4--64" value="&lt;span style=&quot;text-align: left ; white-space: nowrap&quot;&gt;Yaochi&lt;/span&gt;" style="rounded=0;whiteSpace=wrap;html=1;fillColor=#ffff88;strokeColor=#36393d;" vertex="1" parent="1">
          <mxGeometry x="460" y="120" width="120" height="30" as="geometry" />
        </mxCell>
        <mxCell id="NPSApUFOZu9N5_JHAl4--66" value="" style="group" vertex="1" connectable="0" parent="1">
          <mxGeometry x="750" y="120" width="120" height="520" as="geometry" />
        </mxCell>
        <mxCell id="NPSApUFOZu9N5_JHAl4--3" value="" style="rounded=0;whiteSpace=wrap;html=1;" vertex="1" parent="NPSApUFOZu9N5_JHAl4--66">
          <mxGeometry y="30" width="120" height="490" as="geometry" />
        </mxCell>
        <mxCell id="NPSApUFOZu9N5_JHAl4--65" value="&lt;span style=&quot;text-align: left ; white-space: nowrap&quot;&gt;Order Service&lt;/span&gt;" style="rounded=0;whiteSpace=wrap;html=1;fillColor=#cdeb8b;strokeColor=#36393d;" vertex="1" parent="NPSApUFOZu9N5_JHAl4--66">
          <mxGeometry width="120" height="30" as="geometry" />
        </mxCell>
        <mxCell id="NPSApUFOZu9N5_JHAl4--67" value="" style="group" vertex="1" connectable="0" parent="1">
          <mxGeometry x="170" y="120" width="120" height="520" as="geometry" />
        </mxCell>
        <mxCell id="NPSApUFOZu9N5_JHAl4--1" value="" style="rounded=0;whiteSpace=wrap;html=1;" vertex="1" parent="NPSApUFOZu9N5_JHAl4--67">
          <mxGeometry y="30" width="120" height="490" as="geometry" />
        </mxCell>
        <mxCell id="NPSApUFOZu9N5_JHAl4--63" value="&lt;span style=&quot;white-space: normal&quot;&gt;Client&lt;/span&gt;" style="rounded=0;whiteSpace=wrap;html=1;fillColor=#cce5ff;strokeColor=#36393d;" vertex="1" parent="NPSApUFOZu9N5_JHAl4--67">
          <mxGeometry width="120" height="30" as="geometry" />
        </mxCell>
        <mxCell id="NPSApUFOZu9N5_JHAl4--74" value="监控报警" style="shape=hexagon;perimeter=hexagonPerimeter2;whiteSpace=wrap;html=1;fillColor=#f8cecc;strokeColor=#b85450;" vertex="1" parent="1">
          <mxGeometry x="475" y="433" width="90" height="20" as="geometry" />
        </mxCell>
      </root>
    </mxGraphModel>
  </diagram>
</mxfile>
